<svg version="1.1" id="Layer_1" xmlns="http://www.w3.org/2000/svg" xmlns:xlink="http://www.w3.org/1999/xlink" x="0px" y="0px"
	 width="100%" viewBox="0 0 100 60" enable-background="new 0 0 100 60" xml:space="preserve">
<path fill="#000000" opacity="1.000000" stroke="none" 
	d="
M67.000000,61.000000 
	C44.666672,61.000000 22.833342,61.000000 1.000009,61.000000 
	C1.000006,41.000008 1.000006,21.000015 1.000003,1.000017 
	C34.333321,1.000011 67.666641,1.000011 100.999969,1.000006 
	C100.999985,20.999983 100.999985,40.999966 100.999992,60.999977 
	C89.833336,61.000000 78.666664,61.000000 67.000000,61.000000 
M54.835770,45.146637 
	C55.468067,46.604137 56.168381,48.036991 56.708607,49.527855 
	C57.065041,50.511494 56.842937,51.949810 57.478695,52.546272 
	C60.869053,55.727085 64.303375,59.075153 70.007004,57.316006 
	C66.922386,49.950584 69.204628,43.229630 72.184616,36.315468 
	C75.996193,27.471859 79.174255,18.346794 82.351288,9.247339 
	C82.818077,7.910395 82.319878,5.361320 81.318787,4.561770 
	C78.931175,2.654835 71.400467,6.482584 70.348640,9.462835 
	C68.524345,14.631835 66.373596,19.685617 64.359756,24.787718 
	C63.818069,24.588264 63.276386,24.388809 62.734703,24.189354 
	C63.914375,20.943817 65.379684,17.763882 66.146858,14.423604 
	C66.502258,12.876127 66.052391,10.106512 65.005829,9.468418 
	C61.848099,7.543157 54.835407,11.037169 53.733887,14.523004 
	C53.217297,16.157803 52.432632,17.707890 51.769455,19.296366 
	C51.245167,14.825600 49.806026,13.600430 45.472153,14.534438 
	C38.646004,16.005564 31.658979,16.829119 24.700146,17.531197 
	C22.315252,17.771809 19.810541,16.824804 17.360569,16.420383 
	C17.080498,17.009106 16.800426,17.597828 16.520353,18.186548 
	C20.612829,20.712963 24.521175,23.632862 28.848345,25.657730 
	C33.389458,27.782709 34.413700,29.959629 32.214592,34.491425 
	C30.851221,37.300980 30.088619,40.402065 28.846743,43.975414 
	C32.797180,43.975414 35.852726,44.650963 38.363045,43.771046 
	C40.543442,43.006775 42.106953,40.482594 43.855827,38.819176 
	C43.707401,40.672356 43.551678,42.616680 43.355873,45.061390 
	C47.351906,45.061390 50.670029,45.061390 54.835770,45.146637 
z"/>
<path fill="#0F3065" opacity="1.000000" stroke="none" 
	d="
M54.411964,45.104012 
	C50.670029,45.061390 47.351906,45.061390 43.355873,45.061390 
	C43.551678,42.616680 43.707401,40.672356 43.855827,38.819176 
	C42.106953,40.482594 40.543442,43.006775 38.363045,43.771046 
	C35.852726,44.650963 32.797180,43.975414 28.846743,43.975414 
	C30.088619,40.402065 30.851221,37.300980 32.214592,34.491425 
	C34.413700,29.959629 33.389458,27.782709 28.848345,25.657730 
	C24.521175,23.632862 20.612829,20.712963 16.520353,18.186548 
	C16.800426,17.597828 17.080498,17.009106 17.360569,16.420383 
	C19.810541,16.824804 22.315252,17.771809 24.700146,17.531197 
	C31.658979,16.829119 38.646004,16.005564 45.472153,14.534438 
	C49.806026,13.600430 51.245167,14.825600 51.769455,19.296366 
	C52.432632,17.707890 53.217297,16.157803 53.733887,14.523004 
	C54.835407,11.037169 61.848099,7.543157 65.005829,9.468418 
	C66.052391,10.106512 66.502258,12.876127 66.146858,14.423604 
	C65.379684,17.763882 63.914375,20.943817 62.734703,24.189354 
	C63.276386,24.388809 63.818069,24.588264 64.359756,24.787718 
	C66.373596,19.685617 68.524345,14.631835 70.348640,9.462835 
	C71.400467,6.482584 78.931175,2.654835 81.318787,4.561770 
	C82.319878,5.361320 82.818077,7.910395 82.351288,9.247339 
	C79.174255,18.346794 75.996193,27.471859 72.184616,36.315468 
	C69.204628,43.229630 66.922386,49.950584 70.007004,57.316006 
	C64.303375,59.075153 60.869053,55.727085 57.478695,52.546272 
	C56.842937,51.949810 57.065041,50.511494 56.708607,49.527855 
	C56.168381,48.036991 55.468067,46.604137 54.411964,45.104012 
z"/>
</svg>