<?xml version="1.0" encoding="UTF-8" standalone="no"?>
<!-- Created with Inkscape (http://www.inkscape.org/) -->

<svg
   width="20.497728mm"
   height="20.565914mm"
   viewBox="0 0 20.497728 20.565914"
   version="1.1"
   id="svg1"
   inkscape:version="1.3.1 (9b9bdc1480, 2023-11-25, custom)"
   sodipodi:docname="favicon.svg"
   xmlns:inkscape="http://www.inkscape.org/namespaces/inkscape"
   xmlns:sodipodi="http://sodipodi.sourceforge.net/DTD/sodipodi-0.dtd"
   xmlns="http://www.w3.org/2000/svg"
   xmlns:svg="http://www.w3.org/2000/svg">
  <sodipodi:namedview
     id="namedview1"
     pagecolor="#505050"
     bordercolor="#ffffff"
     borderopacity="1"
     inkscape:showpageshadow="0"
     inkscape:pageopacity="0"
     inkscape:pagecheckerboard="1"
     inkscape:deskcolor="#505050"
     inkscape:document-units="mm"
     inkscape:zoom="1.0476431"
     inkscape:cx="190.90471"
     inkscape:cy="94.497831"
     inkscape:window-width="2501"
     inkscape:window-height="1376"
     inkscape:window-x="0"
     inkscape:window-y="0"
     inkscape:window-maximized="1"
     inkscape:current-layer="layer1" />
  <defs
     id="defs1" />
  <g
     inkscape:label="Layer 1"
     inkscape:groupmode="layer"
     id="layer1"
     transform="translate(-54.504167,-66.410418)">
    <path
       fill="#030300"
       opacity="1"
       stroke="none"
       d="m 56.519335,82.875964 c -4.257739,-6.277589 -1.489493,-14.010611 5.679837,-16.108674 4.041491,-1.18273 8.698079,0.649168 11.1517,4.387104 2.331392,3.551737 2.178606,8.455215 -0.362696,11.640875 -4.408212,5.525921 -11.887565,5.596168 -16.468841,0.08069 m -0.05491,-9.010771 c -1.211869,3.488335 -0.381411,6.440289 2.378561,8.895095 -1.63858,-3.164551 -2.332659,-6.47969 -1.79791,-10.079066 -0.173143,0.327999 -0.346286,0.656 -0.580651,1.183971 m 7.25661,-6.013554 c -0.217591,0.08741 -0.435176,0.174811 -0.652767,0.262208 0.01373,0.09253 0.02748,0.185068 0.04122,0.277601 1.099667,0 2.19933,0 3.298997,0 0.0073,-0.185391 0.01455,-0.370779 0.02183,-0.556168 -0.833257,0 -1.666515,0 -2.709264,0.01635 z"
       id="path1"
       style="fill:#800000;stroke-width:0.264583" />
  </g>
</svg>
