<?xml version="1.0" encoding="UTF-8" standalone="no"?>
<svg
   version="1.1"
   id="Layer_1"
   x="0px"
   y="0px"
   width="822.21466"
   viewBox="0 0 822.21466 152.94464"
   enable-background="new 0 0 1200 1200"
   xml:space="preserve"
   height="152.94464"
   xmlns="http://www.w3.org/2000/svg"
   xmlns:svg="http://www.w3.org/2000/svg"><defs
   id="defs11" />
  <path
   fill="#b40d0d"
   opacity="1"
   stroke="none"
   d="m 7.6163823,105.20294 c -16.09224,-23.72632 -5.62958,-52.95349 21.4670997,-60.88318 15.27493,-4.47016 32.87463,2.45355 42.14816,16.58118 8.81156,13.42389 8.2341,31.95672 -1.37082,43.99701 -16.66096,20.88537 -44.92938,21.15087 -62.2444397,0.30499 m -0.20755,-34.05646 c -4.58029,13.18426 -1.44155,24.34125 8.9898397,33.61926 -6.19306,-11.96051 -8.8163497,-24.49017 -6.7952497,-38.09411 -0.6544,1.23968 -1.3088,2.47937 -2.19459,4.47485 M 34.835392,48.41809 c -0.82239,0.33038 -1.64476,0.6607 -2.46715,0.99102 0.0519,0.34974 0.10385,0.69947 0.15578,1.0492 4.15622,0 8.31243,0 12.46865,0 0.0275,-0.70069 0.055,-1.40137 0.0825,-2.10205 -3.14932,0 -6.29864,0 -10.23974,0.0618 z"
   id="path1" />
  <path
   fill="#050400"
   opacity="1"
   stroke="none"
   d="m 260.0309,108.3515 c -0.0442,-12.13568 -0.0442,-23.78919 -0.0442,-35.44275 -0.42969,-0.14716 -0.85938,-0.29437 -1.28903,-0.44159 -3.29767,5.70581 -6.61713,11.39917 -9.8819,17.12372 -1.2341,2.16394 -2.19702,4.49279 -3.53772,6.58349 -2.72485,4.24927 -6.80875,4.22016 -9.42767,-0.0997 -4.69342,-7.74176 -9.25391,-15.56408 -14.91095,-23.16015 0,5.88867 0.0635,11.77813 -0.0155,17.66577 -0.10733,7.99084 -0.38183,15.97973 -0.46521,23.9707 -0.0338,3.24475 -1.40481,4.27808 -4.63601,4.15119 -11.16278,-0.43836 -11.21509,-0.33997 -11.19333,-11.65821 0.0426,-22.15533 0.1661,-44.31054 0.19977,-66.46594 0.005,-3.27344 1.35708,-4.79212 4.69186,-5.10504 6.0575,-0.56848 10.78046,0.24682 13.71683,6.79339 3.79577,8.46265 8.63083,16.45911 13.01577,24.65766 1.08921,2.0365 2.16834,4.07837 3.41352,6.42151 6.4411,-11.20545 12.62112,-21.99213 18.83862,-32.75714 2.76965,-4.79535 10.09058,-7.1792 14.84226,-4.49866 1.20446,0.67944 2.16482,2.88605 2.18588,4.40545 0.33719,24.31751 0.45074,48.63807 0.77014,72.95594 0.0442,3.36511 -0.95795,5.09491 -4.42175,5.03582 -0.49942,-0.009 -0.99961,0.0183 -1.4993,0.0336 -12.315,0.37988 -10.14795,0.93896 -10.35205,-10.16913 z"
   id="path2" />
  <path
   fill="#030300"
   opacity="1"
   stroke="none"
   d="m 547.16926,110.28057 c -4.68457,5.06202 -10.37377,7.26935 -16.71167,7.48249 -9.30041,0.31286 -18.6148,0.28448 -27.92285,0.26324 -4.22284,-0.01 -4.57965,-3.31647 -4.59936,-6.36566 -0.07,-10.81323 0.0516,-21.6275 0.0543,-32.44141 0.003,-12.45337 -0.12366,-24.90728 -0.0316,-37.3598 0.0422,-5.70959 1.10468,-6.6889 6.84272,-6.55719 9.45819,0.21704 18.96331,0.12543 28.35437,1.08594 11.37274,1.16315 16.85028,6.34808 19.2077,16.45782 2.30517,9.88538 -0.64551,16.62775 -10.13953,23.2157 -0.25586,0.17755 -0.39941,0.51721 -0.5918,0.78388 13.44129,8.80822 15.57502,21.04474 5.53772,33.43499 M 525.37038,50.69793 c -2.81873,-0.005 -5.667,-0.24463 -8.44086,0.10578 -1.03461,0.13073 -2.65924,1.59942 -2.70783,2.52655 -0.26641,5.08368 -0.12707,10.18872 -0.12707,15.61572 5.5802,0 10.68219,0.21039 15.75848,-0.0609 4.79041,-0.25598 6.36682,-3.70307 6.41767,-7.92231 0.0662,-5.49792 -3.20166,-8.71655 -10.90039,-10.26483 m -7.26807,50.90351 c 3.47369,-0.1316 7.01019,0.10278 10.40643,-0.48011 5.15405,-0.88452 8.013,-4.41259 7.81269,-8.75238 -0.21998,-4.76629 -2.8191,-7.29382 -8.61396,-7.68255 -4.40283,-0.29535 -8.84131,-0.0587 -13.59045,-0.0587 0,4.94422 -0.19458,9.4176 0.13959,13.8512 0.0815,1.08136 1.89807,2.03204 3.8457,3.1225 z"
   id="path3" />
  <path
   fill="#050400"
   opacity="1"
   stroke="none"
   d="m 708.50679,117.5899 c -11.15814,0.73157 -11.03571,0.73206 -10.99133,-10.06232 0.0883,-21.48663 -0.009,-42.974 0.0489,-64.46081 0.0198,-7.32764 1.26532,-8.41339 8.51642,-8.10767 9.46027,0.39893 18.98273,0.27088 28.36286,1.36249 9.69958,1.12872 16.11316,6.80994 17.74035,16.85461 1.57032,9.69416 0.53156,18.74024 -7.98034,25.19214 -3.00037,2.27423 -6.47272,3.92566 -10.14771,6.10999 2.2937,4.52099 4.23902,9.5675 7.26721,13.8479 1.68879,2.38708 5.02246,4.50867 7.8927,4.95227 4.35859,0.67364 5.71265,2.97699 5.90265,6.61096 0.18909,3.61542 -1.04773,6.49829 -4.95672,7.65106 -7.96546,2.3487 -15.5257,-0.0256 -20.26502,-7.85699 -4.19122,-6.92566 -7.08063,-14.63013 -10.75976,-21.88171 -0.78949,-1.55604 -2.50281,-2.64332 -3.79047,-3.9466 -0.53351,0.2746 -1.06702,0.54919 -1.60052,0.82379 0,8.92786 -0.0789,17.85675 0.0391,26.78308 0.0466,3.5315 -0.14563,6.52509 -5.27826,6.12781 m 24.85626,-50.24841 c 5.06299,-7.08289 2.14008,-15.41956 -6.03131,-16.60071 -3.58691,-0.51849 -7.30554,-0.33423 -10.94562,-0.1319 -0.92675,0.0516 -2.51666,1.35822 -2.55108,2.14301 -0.22919,5.22564 -0.11884,10.46618 -0.11884,16.599 6.81616,-0.57483 12.86975,-1.08533 19.64685,-2.0094 z"
   id="path4" />
  <path
   fill="#040400"
   opacity="1"
   stroke="none"
   d="m 449.35579,85.05182 c -2.75397,-0.96754 -3.61463,0.11303 -3.60529,2.4884 0.0312,7.97436 -0.21777,15.95575 0.0471,23.9209 0.14215,4.27533 -0.72412,6.8908 -5.6391,6.42981 -0.97528,-0.0915 -1.98285,0.1831 -2.97717,0.26934 -6.89429,0.59797 -7.68201,-0.21685 -7.66894,-7.27386 0.042,-22.62286 -0.006,-45.24597 0.0575,-67.86871 0.0194,-6.92841 1.02563,-7.90155 7.78784,-7.71235 9.45709,0.26453 18.94702,0.27778 28.35468,1.14148 10.38379,0.95325 15.78949,6.28583 18.41504,16.69837 2.46405,9.77197 -0.78034,20.40497 -8.0564,25.59039 -2.94141,2.09625 -6.20691,3.73779 -10.05805,6.02088 2.57007,4.88714 4.95276,10.36877 8.25263,15.22747 1.33063,1.95935 4.56915,3.24384 7.11658,3.6128 3.98547,0.57727 5.50097,2.68487 5.71002,6.22625 0.21161,3.58423 -0.68512,6.70197 -4.63696,7.81604 -6.32966,1.78431 -12.57465,1.44025 -17.04163,-3.73065 -3.51587,-4.07 -6.16089,-8.96777 -8.75806,-13.73468 -2.61212,-4.79449 -4.68731,-9.88141 -7.2998,-15.12188 m -3.30139,-24.17084 c 0,2.58825 0,5.17651 0,8.15814 5.21948,0 10.19659,0.33154 15.1087,-0.0916 5.08594,-0.43818 7.45142,-4.00556 6.75861,-9.06842 -0.78699,-5.7511 -4.21045,-8.95594 -10.58838,-9.12568 -14.53626,-0.38714 -11.5055,-0.87201 -11.27893,10.12757 z"
   id="path5" />
  <path
   fill="#030300"
   opacity="1"
   stroke="none"
   d="m 680.58028,44.3601 c 8.81018,17.14124 3.42083,31.64777 -14.92988,39.82703 2.57453,5.00726 4.7016,10.29639 7.8866,14.84466 1.55298,2.21759 4.94086,3.81757 7.74664,4.32624 3.73731,0.67749 5.15088,2.42975 5.42261,5.86285 0.28546,3.60669 -0.32013,6.92047 -4.18616,8.08441 -6.22906,1.87531 -12.58105,1.72156 -17.12292,-3.43634 -3.55206,-4.03387 -6.23144,-8.91534 -8.85156,-13.66674 -2.31665,-4.20093 -3.86139,-8.82252 -6.07727,-13.08674 -0.71228,-1.3706 -2.47602,-2.19482 -3.75867,-3.26904 -0.422,0.28632 -0.84393,0.57257 -1.26593,0.85889 0,8.78473 -0.19916,17.5758 0.083,26.35144 0.1441,4.48022 -0.70819,6.66571 -5.91626,6.6665 -10.36518,0.002 -10.29578,0.30689 -10.27155,-9.92437 0.0513,-21.63367 0.004,-43.26758 0.0378,-64.90137 0.0112,-7.05439 1.23108,-8.22077 8.12055,-7.94355 9.61511,0.38685 19.35577,0.0388 28.78991,1.5666 4.9668,0.80438 9.39643,4.92614 14.2931,7.83953 m -16.52131,23.63233 c 4.03736,-2.42462 4.58307,-6.53986 3.06,-10.03681 -1.22015,-2.80114 -4.13861,-5.81366 -6.95624,-6.73449 -3.78589,-1.23719 -8.20398,-0.6894 -12.34137,-0.57331 -0.81073,0.0228 -2.2232,1.54193 -2.26019,2.41742 -0.21655,5.11225 -0.10614,10.23841 -0.10614,15.26435 6.26221,0 12.05676,0 18.60394,-0.33716 z"
   id="path6" />
  <path
   fill="#040400"
   opacity="1"
   stroke="none"
   d="m 291.56398,52.78973 c 5.41604,-18.13647 18.01312,-18.98053 32.08697,-17.96906 12.88746,0.92609 21.68262,10.336 22.47699,23.8924 0.71833,12.25934 0.76825,24.63409 -0.0159,36.88568 -0.95794,14.96808 -11.68652,24.03229 -26.73651,23.71875 -4.13501,-0.0861 -8.40777,-0.18622 -12.35791,-1.24652 -10.88299,-2.92102 -14.9432,-11.60327 -16.38067,-21.65741 -2.06095,-14.41467 -2.09693,-28.87457 0.927,-43.62384 m 19.90582,-1.05743 c -1.63928,2.96234 -4.52765,5.85705 -4.69259,8.89935 -0.58368,10.76776 -0.59443,21.60193 -0.11323,32.37927 0.30988,6.93921 4.02842,10.24262 9.77738,10.43158 7.62134,0.25049 11.98547,-2.39361 12.56934,-9.74451 0.83789,-10.54992 1.09344,-21.26641 0.21923,-31.79742 -0.84204,-10.14276 -6.98132,-13.33655 -17.76013,-10.16827 z"
   id="path7" />
  <path
   fill="#030300"
   opacity="1"
   stroke="none"
   d="m 362.06563,103.71295 c -4.414,-16.94135 -4.53632,-33.69525 -1.02924,-50.30396 2.75348,-13.03985 10.58429,-18.62646 23.8728,-18.91974 7.04908,-0.15551 13.94977,-0.0745 20.06855,4.27808 8.10656,5.76666 10.96215,14.1283 11.1004,23.41791 0.17297,11.63037 0.075,23.30731 -0.78412,34.89904 -0.91101,12.29114 -10.91345,21.50721 -23.19763,22.02039 -4.94965,0.20673 -10.06262,-0.061 -14.88751,-1.10272 -7.51239,-1.62213 -12.54218,-6.54004 -15.14325,-14.289 m 18.06195,-2.37494 c 8.95471,4.59466 17.31585,1.47833 18.23919,-8.17774 1.081,-11.30383 0.63923,-22.84783 -0.21624,-34.20678 -0.51032,-6.77576 -4.97107,-9.01471 -12.85285,-8.54969 -5.20569,0.30713 -8.58313,3.36231 -8.9458,9.47248 -0.58075,9.78406 -0.90716,19.6206 -0.54028,29.40497 0.14581,3.88995 2.42737,7.69995 4.31598,12.05676 z"
   id="path8" />
  <path
   fill="#050400"
   opacity="1"
   stroke="none"
   d="m 566.96101,57.48706 c -0.017,-5.98963 0.0358,-11.48493 -0.18017,-16.96967 -0.11939,-3.03113 0.88666,-5.04858 4.02404,-5.06348 13.9881,-0.0663 27.97791,-0.0566 41.96326,0.16889 1.13556,0.0183 3.1131,1.80408 3.19995,2.88861 0.276,3.44452 0.25037,7.04144 -0.52911,10.37598 -0.29169,1.24749 -2.9563,2.70214 -4.578,2.75024 -8.97492,0.26599 -17.9618,0.12738 -27.23542,0.12738 0,4.88635 0,9.60858 0,15.21014 9.01282,0 17.95002,0.17029 26.87574,-0.0767 4.06121,-0.11224 5.25738,1.35022 4.95141,5.25342 -0.89294,11.38916 2.07324,10.61524 -10.91156,10.70404 -6.96643,0.0476 -13.93347,0.008 -21.24762,0.008 0,6.4663 0,12.33746 0,18.90326 9.09424,0 18.05512,0.25903 26.9906,-0.10553 4.71118,-0.1922 6.49256,1.42315 6.01715,5.97692 -0.15484,1.48273 0.029,2.99756 -0.0303,4.49421 -0.21655,5.46447 -1.07709,5.86371 -6.68793,5.77557 -11.65234,-0.18311 -23.31439,-0.14954 -34.96521,0.11462 -8.03961,0.18219 -8.09472,0.26716 -8.01929,-7.58367 0.16797,-17.48414 0.22046,-34.9693 0.36249,-52.95276 z"
   id="path9" />
  <path
   fill="#050400"
   opacity="1"
   stroke="none"
   d="m 805.97856,45.62188 c -0.085,-2.14001 -0.2639,-3.80084 -0.2578,-5.46106 0.014,-3.67956 1.752,-5.34088 5.5972,-5.23675 10.5659,0.28619 10.7602,0.19507 10.8601,10.63837 0.071,7.46795 0.1431,15.02398 -0.8647,22.393 -1.413,10.33112 -6.3634,18.54871 -17.223,21.57544 -2.60127,0.7251 -3.33369,2.03033 -3.26747,4.59448 0.15894,6.15326 -0.0848,12.3172 0.0801,18.47016 0.095,3.54467 -1.23023,5.08044 -4.8393,5.36078 -11.12555,0.86437 -11.59112,0.51922 -11.45379,-10.57197 0.0268,-2.16326 -0.23883,-4.34777 -0.0237,-6.48779 0.66736,-6.638 -0.28826,-11.43677 -7.89202,-14.35925 -6.96314,-2.67627 -9.38752,-10.22016 -10.22864,-17.27863 -1.13941,-9.56207 -1.39337,-19.22949 -2.03467,-28.85119 -0.20373,-3.05597 1.17426,-4.71485 4.25891,-4.91779 0.99603,-0.0656 1.99042,-0.15942 2.9848,-0.24853 8.31714,-0.74579 9.52967,0.64862 9.50861,8.88507 -0.0183,7.12329 0.4082,14.27411 1.11755,21.3648 0.60047,6.00232 3.91565,8.92261 9.25586,9.1543 7.56861,0.32843 11.69213,-1.86572 12.77123,-8.20679 1.1365,-6.67877 1.1415,-13.54998 1.6508,-20.81665 z"
   id="path10" />
  <path
   fill="#050400"
   opacity="1"
   stroke="none"
   d="m 145.11726,86.47686 c 3e-5,-29.15899 3e-5,-57.81793 3e-5,-86.47686 0.53934,0.003 1.07868,0.006 1.61802,0.009 0,50.94001 0,101.88001 0,152.80011 -0.24372,0.0634 -0.40983,0.15424 -0.55927,0.13214 -0.15241,-0.0225 -0.41312,-0.15472 -0.414,-0.24108 -0.22718,-21.90754 -0.43576,-43.81531 -0.64478,-66.22303 z"
   id="path11" />
</svg>
